<svg xmlns="http://www.w3.org/2000/svg" width="42.001" height="30" viewBox="0 0 42.001 30"><defs><style>.a{fill:#d63e39;}</style></defs><g transform="translate(-2 -6)"><path d="M39,22a4.5,4.5,0,1,0,4.5,4.5A4.5,4.5,0,0,0,39,22Zm0,6a1.5,1.5,0,1,1,1.5-1.5A1.5,1.5,0,0,1,39,28ZM10.5,16A7.5,7.5,0,1,0,18,23.5,7.5,7.5,0,0,0,10.5,16Zm0,10.5a3,3,0,1,1,3-3A3,3,0,0,1,10.5,26.5Z" transform="translate(0.5 5)"/><path class="a" d="M36.989,20.648c-1.191-.33-2.347-.6-3.489-.854V15H35a1.5,1.5,0,0,0,0-3H33.5a3,3,0,0,0-3,3v4.221a76.642,76.642,0,0,0-8.042-.939L20.489,9.513A4.5,4.5,0,0,0,16.1,6H8A1.5,1.5,0,0,0,6.5,7.5v8.278A13.488,13.488,0,0,0,2.561,17.97a1.5,1.5,0,0,0,1.878,2.34,10.68,10.68,0,0,1,6.727-2.3A10.517,10.517,0,0,1,21.5,28.5a10.343,10.343,0,0,1-.6,3.475A.773.773,0,0,0,21.635,33H32.152A7.508,7.508,0,0,1,39.5,24v-.081A3.409,3.409,0,0,0,36.989,20.648ZM9.5,15.09V9h6.6a1.493,1.493,0,0,1,1.464,1.172l1.728,7.7A13.381,13.381,0,0,0,9.5,15.09Z"/></g></svg>