<svg xmlns="http://www.w3.org/2000/svg" width="29.466" height="30" viewBox="0 0 29.466 30"><defs><style>.a{fill:#d63e39;}</style></defs><g transform="translate(-5.197 -5.002)"><path d="M19.93,20.548C12.788,20.548,5.2,18.754,5.2,15.43c0-1.909,2.586-3.521,7.1-4.42a.682.682,0,1,1,.266,1.338c-4.121.822-6,2.175-6,3.084,0,1.566,5.087,3.753,13.369,3.753S33.3,17,33.3,15.43c0-.9-1.855-2.245-5.926-3.069a.682.682,0,1,1,.27-1.337c4.461.9,7.019,2.508,7.019,4.405C34.663,18.754,27.072,20.548,19.93,20.548Z" transform="translate(0 2.18)"/><path d="M18.3,17.047c-4.153,0-8.623-1-8.623-3.19a.682.682,0,0,1,1.364,0c0,.546,2.47,1.826,7.259,1.826S25.56,14.4,25.56,13.857a.682.682,0,0,1,1.364,0C26.923,16.048,22.453,17.047,18.3,17.047Z" transform="translate(1.63 2.973)"/><path d="M18.183,14.977c-3.941,0-8.183-.955-8.183-3.051a.682.682,0,1,1,1.364,0c0,.49,2.389,1.687,6.819,1.687S25,12.415,25,11.926a.682.682,0,1,1,1.364,0c0,2.1-4.241,3.051-8.183,3.051Z" transform="translate(1.747 2.271)"/><path d="M26.24,17.512a.682.682,0,0,1-.671-.566l-1.6-9.3a1.765,1.765,0,0,0-2.676-.989l-.58.386a4.335,4.335,0,0,1-4.822,0l-.58-.386A1.762,1.762,0,0,0,12.622,7.7l-1.592,9.248a.683.683,0,0,1-1.345-.232l1.6-9.3a3.123,3.123,0,0,1,4.776-1.892l.58.386a2.978,2.978,0,0,0,3.31,0l.58-.386A3.124,3.124,0,0,1,25.3,7.369l1.613,9.346a.682.682,0,0,1-.672.8Z" transform="translate(1.631)"/><path class="a" d="M32.305,21.818h-.761A2.4,2.4,0,0,0,29.224,20H9.93a2.4,2.4,0,0,0-2.32,1.818H6.849a.682.682,0,1,0,0,1.364h.682v3.107a3.261,3.261,0,0,0,3.258,3.258h2.273A5.841,5.841,0,0,0,18.9,23.712v-.191a2.492,2.492,0,0,1,1.364,0v.188a5.839,5.839,0,0,0,.131,1.215c.025.113.072.22.1.331a5.706,5.706,0,0,0,.269.8c.063.142.147.27.221.406a5.778,5.778,0,0,0,.365.614c.1.14.217.267.33.4a5.742,5.742,0,0,0,.457.49c.053.049.093.11.147.158.106.091.226.16.338.243s.225.172.346.248a5.831,5.831,0,0,0,.581.316c.13.064.256.132.391.185a5.856,5.856,0,0,0,.664.207c.13.034.254.08.386.105a5.713,5.713,0,0,0,1.1.113h2.273a3.262,3.262,0,0,0,3.258-3.258V23.182h.682a.682.682,0,0,0,0-1.364Zm-7.169,6.249c-.061-.014-.121-.034-.181-.049a4.59,4.59,0,0,1-.514-.16c-.1-.041-.2-.093-.295-.14q-.184-.089-.36-.2l5.982-5.982a1.023,1.023,0,0,1,.494.859v.543Zm-3.129-2.554L22,25.484l4.12-4.12h1.9l-5.272,5.272-.034-.037c-.086-.1-.175-.2-.251-.3a4.576,4.576,0,0,1-.281-.472c-.055-.1-.119-.2-.168-.311Zm2.182-4.149L21.643,23.91c0-.067-.022-.13-.022-.2v-.454a1.9,1.9,0,0,1,1.894-1.894h.674Zm-9.426,0-5.7,5.7a1.886,1.886,0,0,1-.169-.775v-.953l3.971-3.971h1.9ZM8.895,22.4A1.036,1.036,0,0,1,9.93,21.364h1.008L8.893,23.408V22.4Zm1.137,5.624,6.451-6.451a1.9,1.9,0,0,1,.911.985l-5.626,5.626h-.979a1.89,1.89,0,0,1-.757-.16Zm3.735.089,3.692-3.692a4.46,4.46,0,0,1-3.692,3.692Zm4.925-5.952a3.251,3.251,0,0,0-.415-.8h2.6a3.3,3.3,0,0,0-.416.8A3.932,3.932,0,0,0,18.692,22.16Zm9.673,6.022H26.948l3.311-3.311V26.29A1.9,1.9,0,0,1,28.365,28.183Z" transform="translate(0.353 5.456)"/></g></svg>