<svg xmlns="http://www.w3.org/2000/svg" width="30.141" height="30" viewBox="0 0 30.141 30"><defs><style>.a{fill:#d63e39;}</style></defs><g transform="translate(-239 -732)"><path class="a" d="M191.9,5.5a4.2,4.2,0,1,0-5.375,4.03V29.185a1.175,1.175,0,1,0,2.35,0V9.53A4.206,4.206,0,0,0,191.9,5.5Zm-4.2,1.85a1.85,1.85,0,1,1,1.85-1.85A1.85,1.85,0,0,1,187.7,7.351Z" transform="translate(66.326 730.7)"/><path d="M317.678,106.3a4.205,4.205,0,0,0-4.159,3.624H312.35a2.15,2.15,0,0,0-1.986,1.134,3.88,3.88,0,0,0-.364,1.8v16.1a1.175,1.175,0,0,0,2.35,0v-16.1a2.68,2.68,0,0,1,.047-.587h1.48a4.2,4.2,0,1,0,3.8-5.974Zm0,6.051a1.85,1.85,0,1,1,1.85-1.85A1.85,1.85,0,0,1,317.678,112.351Z" transform="translate(-52.743 631.868)"/><path d="M8.058,109.924h-.5a4.2,4.2,0,1,0-.352,2.35h.852a.589.589,0,0,1,.587.587v16.1a1.175,1.175,0,0,0,2.35,0v-16.1A2.938,2.938,0,0,0,8.058,109.924ZM3.4,112.351a1.85,1.85,0,1,1,1.85-1.85A1.85,1.85,0,0,1,3.4,112.351Z" transform="translate(239.8 631.868)"/></g></svg>